<?xml version="1.0" encoding="utf-8"?><svg xmlns="http://www.w3.org/2000/svg" xmlns:xlink="http://www.w3.org/1999/xlink" width="1874" height="732" preserveAspectRatio="xMidYMid" viewBox="0 0 1874 732" style="z-index:1;margin-right:-2px;display:block;background-repeat-y:initial;background-repeat-x:initial;background-color:rgb(241, 242, 243);animation-play-state:paused" ><g transform="translate(937,366) scale(1,1) translate(-937,-366)" style="transform:matrix(1, 0, 0, 1, 0, 0);animation-play-state:paused" ><linearGradient id="lg-0.7692463881090492" x1="0" x2="1" y1="0" y2="0" style="animation-play-state:paused" ><stop stop-color="#1c2333" offset="0" style="animation-play-state:paused" ></stop>

  
<stop stop-color="#e0bf4b" offset="1" style="animation-play-state:paused" ></stop></linearGradient>
<path d="M 0 0 L 0 431.861 Q 85.1818 489.278 170.364 468.944 T 340.727 429.431 T 511.091 373.833 T 681.455 397.924 T 851.818 316.172 T 1022.18 288.823 T 1192.55 333.044 T 1362.91 259.484 T 1533.27 219.154 T 1703.64 182.086 T 1874 240.873 L 1874 0 Z" fill="url(#lg-0.7692463881090492)" opacity="0.33999999999999997" style="opacity:0.34;animation-play-state:paused" ></path>
<path d="M 0 0 L 0 477.161 Q 85.1818 481.606 170.364 447.738 T 340.727 444.109 T 511.091 362.924 T 681.455 377.06 T 851.818 316.506 T 1022.18 315.557 T 1192.55 299.787 T 1362.91 263.05 T 1533.27 244.476 T 1703.64 197.296 T 1874 170.45 L 1874 0 Z" fill="url(#lg-0.7692463881090492)" opacity="0.33999999999999997" style="opacity:0.34;animation-play-state:paused" ></path>
<path d="M 0 0 L 0 487.346 Q 85.1818 465.492 170.364 438.038 T 340.727 421.454 T 511.091 407.068 T 681.455 355.006 T 851.818 349.587 T 1022.18 262.522 T 1192.55 312.988 T 1362.91 275.495 T 1533.27 264.46 T 1703.64 202.484 T 1874 218.153 L 1874 0 Z" fill="url(#lg-0.7692463881090492)" opacity="0.33999999999999997" style="opacity:0.34;animation-play-state:paused" ></path>
<path d="M 0 0 L 0 434.104 Q 85.1818 462.208 170.364 438.919 T 340.727 381.552 T 511.091 379.158 T 681.455 385.051 T 851.818 319.035 T 1022.18 322.773 T 1192.55 299.483 T 1362.91 253.251 T 1533.27 218.215 T 1703.64 226.077 T 1874 189.79 L 1874 0 Z" fill="url(#lg-0.7692463881090492)" opacity="0.33999999999999997" style="opacity:0.34;animation-play-state:paused" ></path>
<path d="M 0 0 L 0 433.452 Q 85.1818 478.308 170.364 437.609 T 340.727 408.471 T 511.091 366.86 T 681.455 329.749 T 851.818 364.425 T 1022.18 257.11 T 1192.55 285.809 T 1362.91 242.509 T 1533.27 220.74 T 1703.64 167.41 T 1874 193.188 L 1874 0 Z" fill="url(#lg-0.7692463881090492)" opacity="0.33999999999999997" style="opacity:0.34;animation-play-state:paused" ></path>
<path d="M 0 0 L 0 431.479 Q 85.1818 491.288 170.364 450.689 T 340.727 408.172 T 511.091 359.591 T 681.455 377.278 T 851.818 321.96 T 1022.18 321.673 T 1192.55 288.235 T 1362.91 275.343 T 1533.27 233.548 T 1703.64 217.012 T 1874 178.627 L 1874 0 Z" fill="url(#lg-0.7692463881090492)" opacity="0.33999999999999997" style="opacity:0.34;animation-play-state:paused" ></path>
<path d="M 0 0 L 0 447.438 Q 85.1818 429.722 170.364 400.55 T 340.727 393.157 T 511.091 400.793 T 681.455 353.078 T 851.818 348.984 T 1022.18 312.383 T 1192.55 291.465 T 1362.91 258.39 T 1533.27 266.286 T 1703.64 234.47 T 1874 182.877 L 1874 0 Z" fill="url(#lg-0.7692463881090492)" opacity="0.33999999999999997" style="opacity:0.34;animation-play-state:paused" ></path></g></svg>