<?xml version="1.0" standalone="no"?><svg xmlns="http://www.w3.org/2000/svg" viewBox="0 0 1440 320"><path fill="#1C2333" fill-opacity="1" d="M0,96L16,106.7C32,117,64,139,96,154.7C128,171,160,181,192,186.7C224,192,256,192,288,165.3C320,139,352,85,384,74.7C416,64,448,96,480,117.3C512,139,544,149,576,165.3C608,181,640,203,672,192C704,181,736,139,768,117.3C800,96,832,96,864,117.3C896,139,928,181,960,176C992,171,1024,117,1056,90.7C1088,64,1120,64,1152,106.7C1184,149,1216,235,1248,234.7C1280,235,1312,149,1344,128C1376,107,1408,149,1424,170.7L1440,192L1440,0L1424,0C1408,0,1376,0,1344,0C1312,0,1280,0,1248,0C1216,0,1184,0,1152,0C1120,0,1088,0,1056,0C1024,0,992,0,960,0C928,0,896,0,864,0C832,0,800,0,768,0C736,0,704,0,672,0C640,0,608,0,576,0C544,0,512,0,480,0C448,0,416,0,384,0C352,0,320,0,288,0C256,0,224,0,192,0C160,0,128,0,96,0C64,0,32,0,16,0L0,0Z"></path></svg>